<?xml version="1.0" encoding="UTF-8"?>
<svg width="24" height="24" viewBox="0 0 24 24" fill="none" xmlns="http://www.w3.org/2000/svg" aria-hidden="true">
  <rect width="24" height="24" rx="4" fill="#0D1117"/>
  <path fill-rule="evenodd" clip-rule="evenodd" d="M12 .5C5.73.5.95 5.29.95 11.56c0 4.61 2.99 8.53 7.14 9.92.52.1.71-.23.71-.51 0-.25-.01-.91-.01-1.79-2.9.63-3.51-1.25-3.51-1.25-.47-1.22-1.14-1.55-1.14-1.55-.93-.64.07-.63.07-.63 1.03.07 1.57 1.06 1.57 1.06.91 1.56 2.38 1.11 2.96.85.09-.66.36-1.11.65-1.37-2.32-.26-4.76-1.16-4.76-5.17 0-1.14.39-2.07 1.03-2.8-.1-.26-.45-1.3.1-2.71 0 0 .84-.27 2.75 1.06A9.5 9.5 0 0112.5 7.7c.85.004 1.71.115 2.51.337 1.9-1.33 2.74-1.06 2.74-1.06.55 1.41.2 2.45.1 2.71.64.73 1.03 1.66 1.03 2.8 0 4.02-2.45 4.9-4.78 5.16.37.32.7.95.7 1.92 0 1.39-.01 2.51-.01 2.85 0 .28.19.61.72.51 4.14-1.4 7.12-5.32 7.12-9.92C23.05 5.29 18.27.5 12 .5z" fill="white"/>
</svg>
