<?xml version="1.0" encoding="UTF-8"?>
<svg width="24" height="24" viewBox="0 0 24 24" fill="none" xmlns="http://www.w3.org/2000/svg" aria-hidden="true">
  <rect width="24" height="24" rx="4" fill="#0A66C2"/>
  <path d="M6.94 9.5H9.2V18H6.94V9.5ZM8.07 7.9C7.21 7.9 6.55 7.24 6.55 6.38C6.55 5.52 7.21 4.86 8.07 4.86C8.93 4.86 9.59 5.52 9.59 6.38C9.59 7.24 8.93 7.9 8.07 7.9ZM10.9 9.5H13.02V10.6H13.07C13.53 9.78 14.6 8.9 16.26 8.9C19.04 8.9 19.5 10.78 19.5 13.36V18H17.24V13.94C17.24 12.46 17.2 10.6 15.02 10.6C12.82 10.6 12.44 12.18 12.44 13.82V18H10.18V9.5H10.9Z" fill="white"/>
</svg>
